<?xml version="1.0" encoding="utf-8"?>
<!-- Generator: Adobe Illustrator 15.0.0, SVG Export Plug-In . SVG Version: 6.00 Build 0)  -->
<!DOCTYPE svg PUBLIC "-//W3C//DTD SVG 1.1//EN" "http://www.w3.org/Graphics/SVG/1.1/DTD/svg11.dtd">
<svg version="1.1" id="Layer_1" xmlns="http://www.w3.org/2000/svg" xmlns:xlink="http://www.w3.org/1999/xlink" x="0px" y="0px"
	 width="284px" height="19px" viewBox="0 0 284 19" enable-background="new 0 0 284 19" xml:space="preserve">
<g>
	<polygon fill="#3F3F41" points="102.905,1.28 106.196,1.28 107.703,2.923 107.703,15.722 106.196,17.365 102.905,17.365 
		102.905,18.097 117.712,18.097 117.712,17.365 114.558,17.365 112.776,15.722 112.776,9.322 116.843,9.322 119.221,13.527 
		119.951,13.527 119.951,4.525 119.221,4.525 116.843,8.591 112.776,8.591 112.776,3.062 114.971,1.28 122.327,1.28 125.984,7.814 
		126.714,7.814 126.714,0.548 102.905,0.548 	"/>
	<polygon fill="#3F3F41" points="93.494,17.366 86.457,17.366 84.856,15.721 84.856,9.78 88.513,9.78 91.118,13.938 91.849,13.938 
		91.849,4.937 91.118,4.937 88.558,9.048 84.856,9.048 84.856,2.971 86.457,1.28 94.18,1.28 97.561,6.9 98.292,6.9 98.292,0.548 
		74.895,0.548 74.895,1.28 78.093,1.28 79.602,2.923 79.602,15.721 78.093,17.366 74.895,17.366 74.895,18.097 98.795,18.097 
		99.16,10.375 98.43,10.375 	"/>
	<polygon fill="#3F3F41" points="56.754,1.28 59.908,1.28 61.416,2.923 61.416,15.722 59.908,17.365 56.754,17.365 56.754,18.097 
		71.15,18.097 71.15,17.365 68.271,17.365 66.488,15.722 66.488,2.923 68.271,1.28 71.15,1.28 71.15,0.548 56.754,0.548 	"/>
	<g>
		<path fill="#3F3F41" d="M12.385,17.382c-6.9,0-6.9-5.773-6.9-8.104c0-1.784,0-8.548,6.626-8.548c3.107,0,6.992,1.691,8.499,7.129
			h0.732V0H20.61l-2.65,2.01C16.314,0.96,14.853,0,11.289,0C5.987,0,0,3.748,0,9.551c0,4.662,4.616,9.096,11.745,9.096
			c5.867,0,8.579-3.609,9.719-5.843h-1.339C17.839,16.883,14.336,17.382,12.385,17.382"/>
	</g>
	<polygon fill="#3F3F41" points="40.122,1.28 41.951,1.28 43.412,2.923 43.412,8.591 34.411,8.591 34.411,2.923 35.917,1.28 
		37.472,1.28 37.472,0.548 25.361,0.548 25.361,1.28 27.966,1.28 29.566,2.923 29.566,15.722 28.057,17.365 25.361,17.365 
		25.361,18.097 37.609,18.097 37.609,17.365 36.055,17.365 34.411,15.722 34.411,9.643 43.412,9.643 43.412,15.722 42.042,17.365 
		40.213,17.365 40.213,18.097 52.461,18.097 52.461,17.365 50.13,17.365 48.256,15.722 48.256,2.923 49.856,1.28 52.461,1.28 
		52.461,0.548 40.122,0.548 	"/>
	<g>
		<path fill="#3F3F41" d="M181.121,8.591h-2.424V2.741l1.463-1.461h3.793c0.867,0,4.068,0.365,4.068,3.564
			C188.022,7.312,185.967,8.591,181.121,8.591 M191.859,14.623l-1.597-3.472c-1.19-0.092-5.03-0.595-5.03-1.553
			c0-0.595,0.274-0.688,2.652-1.051c2.468-0.366,5.849-0.822,5.849-3.885c0-4.112-6.076-4.112-8.18-4.112h-16.131v0.73h2.604
			l1.601,1.644v12.798l-1.511,1.644h-2.694v0.732h13.163v-0.732h-2.378l-1.511-1.508V9.322c4.892,0,5.395,0,8.55,8.775h8.359v-0.87
			C193.506,17.091,192.868,16.771,191.859,14.623"/>
		<path fill="#3F3F41" d="M242.687,1.28h2.881l2.15,2.742v7.813L234.966,0.548h-8.819V1.28h3.108c1.507,0,1.507,1.553,1.507,2.148
			v11.194l-2.104,2.742h-2.512v0.732h10.923v-0.732h-3.064l-2.241-2.877V4.388l15.677,13.709h1.279V3.975l2.193-2.695h2.424V0.548
			h-10.651V1.28z"/>
	</g>
	<polygon fill="#3F3F41" points="282.218,17.366 273.533,6.353 281.396,1.28 283.498,1.28 283.498,0.548 271.612,0.548 
		271.612,1.28 273.169,1.28 275.726,3.93 265.49,10.465 265.49,2.56 267,1.28 268.693,1.28 268.693,0.548 256.214,0.548 
		256.214,1.28 258.821,1.28 260.418,2.923 260.418,15.721 258.909,17.366 256.214,17.366 256.214,18.097 268.693,18.097 
		268.693,17.366 267,17.366 265.49,15.857 265.49,11.516 269.605,8.958 274.995,15.767 274.265,17.366 271.752,17.366 
		271.752,18.097 284,18.097 284,17.366 	"/>
	<g>
		<path fill="#3F3F41" d="M212.851,1.28h3.06l2.385,2.97v6.901c0,4.752-2.337,6.625-7.638,6.625c-1.278,0-5.12,0-5.12-3.244V2.878
			l1.643-1.598h2.881V0.548H196.08V1.28h2.88l1.506,1.691v9.322c0,4.845,3.063,6.353,9.458,6.353c5.67,0,9.77-1.69,9.77-7.267V4.433
			l2.568-3.152h2.013V0.548h-11.424V1.28z"/>
	</g>
	<polygon fill="#3F3F41" points="145.496,8.911 145.952,8.911 149.702,1.28 153.493,1.28 153.493,15.537 151.94,17.365 
		148.103,17.365 148.103,18.097 163.548,18.097 163.548,17.365 159.711,17.365 158.153,15.537 158.153,1.28 161.947,1.28 
		165.693,8.911 166.153,8.911 166.153,0.549 145.496,0.549 	"/>
</g>
</svg>
