<?xml version="1.0" encoding="utf-8"?>
<!-- Generator: Adobe Illustrator 15.0.0, SVG Export Plug-In . SVG Version: 6.00 Build 0)  -->
<!DOCTYPE svg PUBLIC "-//W3C//DTD SVG 1.1//EN" "http://www.w3.org/Graphics/SVG/1.1/DTD/svg11.dtd">
<svg version="1.1" id="Layer_1" xmlns="http://www.w3.org/2000/svg" xmlns:xlink="http://www.w3.org/1999/xlink" x="0px" y="0px"
	 width="8px" height="16px" viewBox="0 0 8 16" enable-background="new 0 0 8 16" xml:space="preserve">
<path fill="#FFFFFF" d="M4.964,16H1.655V8H0V5.242h1.655V3.587C1.655,1.338,2.588,0,5.241,0h2.21v2.758H6.07
	c-1.032,0-1.103,0.385-1.103,1.104L4.964,5.242h2.502L7.174,8h-2.21V16z"/>
<path fill="#FFFFFF" d="M47.268-51.653c-0.727,0.322-1.506,0.539-2.322,0.637c0.834-0.501,1.477-1.293,1.777-2.235
	c-0.781,0.462-1.645,0.798-2.566,0.98c-0.736-0.785-1.785-1.275-2.947-1.275c-2.23,0-4.039,1.808-4.039,4.04
	c0,0.315,0.035,0.625,0.104,0.92c-3.355-0.168-6.332-1.775-8.324-4.22c-0.348,0.595-0.549,1.29-0.549,2.03
	c0,1.401,0.715,2.638,1.799,3.362c-0.664-0.021-1.285-0.202-1.83-0.505c0,0.018,0,0.033,0,0.049c0,1.958,1.393,3.59,3.24,3.961
	c-0.34,0.094-0.697,0.141-1.064,0.141c-0.262,0-0.514-0.023-0.76-0.07c0.514,1.604,2.004,2.771,3.773,2.805
	c-1.383,1.082-3.125,1.729-5.016,1.729c-0.328,0-0.648-0.02-0.965-0.055c1.787,1.145,3.91,1.814,6.191,1.814
	c7.43,0,11.492-6.156,11.492-11.494c0-0.175-0.004-0.35-0.01-0.522C46.04-50.132,46.725-50.843,47.268-51.653"/>
</svg>
