<?xml version="1.0" encoding="utf-8"?>
<!-- Generator: Adobe Illustrator 15.0.0, SVG Export Plug-In . SVG Version: 6.00 Build 0)  -->
<!DOCTYPE svg PUBLIC "-//W3C//DTD SVG 1.1//EN" "http://www.w3.org/Graphics/SVG/1.1/DTD/svg11.dtd">
<svg version="1.1" id="Layer_1" xmlns="http://www.w3.org/2000/svg" xmlns:xlink="http://www.w3.org/1999/xlink" x="0px" y="0px"
	 width="20px" height="16px" viewBox="0 0 20 16" enable-background="new 0 0 20 16" xml:space="preserve">
<path fill="#FFFFFF" d="M19.689,1.893c-0.727,0.322-1.506,0.539-2.322,0.637c0.834-0.501,1.477-1.293,1.777-2.235
	c-0.781,0.462-1.645,0.798-2.566,0.98C15.842,0.49,14.793,0,13.631,0c-2.23,0-4.039,1.808-4.039,4.04
	c0,0.315,0.035,0.625,0.104,0.92C6.34,4.791,3.363,3.184,1.371,0.739c-0.348,0.595-0.549,1.29-0.549,2.03
	c0,1.401,0.715,2.638,1.799,3.362C1.957,6.111,1.336,5.93,0.791,5.627c0,0.018,0,0.033,0,0.049c0,1.958,1.393,3.59,3.24,3.961
	c-0.34,0.094-0.697,0.141-1.064,0.141c-0.262,0-0.514-0.023-0.76-0.07c0.514,1.604,2.004,2.771,3.773,2.805
	c-1.383,1.082-3.125,1.729-5.016,1.729c-0.328,0-0.648-0.02-0.965-0.055C1.787,15.331,3.91,16,6.191,16
	c7.43,0,11.492-6.156,11.492-11.494c0-0.175-0.004-0.35-0.01-0.522C18.461,3.414,19.146,2.703,19.689,1.893"/>
</svg>
